<svg xmlns="http://www.w3.org/2000/svg" width="251" height="61" viewBox="0 0 251 61" fill="none"><g clip-path="url(#clip0_8994_609)"><path d="M39.4515 0L0 60.8739H17.6125L39.3667 20.8799L39.4515 0Z" fill="#3ABCE9"></path><path d="M58.4211 31.1937L39.3385 0L39.1406 20.8939L58.4211 55.8151V31.1937Z" fill="#3ABCE9"></path><mask id="mask0_8994_609" style="mask-type:luminance" maskUnits="userSpaceOnUse" x="1" y="1" width="39" height="60"><path d="M1.51172 60.8737H17.6118L39.055 21.4402L39.1398 1.84961L1.51172 60.8737Z" fill="white"></path></mask><g mask="url(#mask0_8994_609)"><path d="M39.1398 1.84961H1.51172V60.8597H39.1398V1.84961Z" fill="url(#paint0_linear_8994_609)"></path></g><mask id="mask1_8994_609" style="mask-type:luminance" maskUnits="userSpaceOnUse" x="39" y="0" width="29" height="61"><path d="M67.9777 45.1088L39.3396 0.364258L39.2266 21.0479L65.4475 60.9999L67.9777 60.9859V45.1088Z" fill="white"></path></mask><g mask="url(#mask1_8994_609)"><path d="M67.9636 0.364258H39.2266V60.9999H67.9636V0.364258Z" fill="url(#paint1_linear_8994_609)"></path></g><path d="M56.9105 60.9997L50.8324 49.8311H25.5726L28.9227 43.5391H47.4399L38.4075 26.9333L20.0033 60.9997H11.918L35.2129 18.5113C36.0469 16.9839 37.107 16.0029 38.676 16.0029C40.2451 16.0029 41.2487 16.9839 42.0826 18.5113L65.4482 60.9997H56.9105Z" fill="black"></path><path d="M100.36 60.9864L91.5259 51.2611H78.4791V45.866H93.0243C97.3921 45.866 99.6961 43.3576 99.6961 38.8453C99.6961 34.333 97.1942 32.1049 93.0243 32.1049H74.0265V60.9864H67.9766V25.9951H93.0243C100.997 25.9951 105.689 30.9558 105.689 38.7472C105.689 44.5207 103.004 48.6126 98.4946 50.3503L109.011 60.9864H100.375H100.36Z" fill="black"></path><path d="M118.596 25.9951H112.504V60.9864H118.596V25.9951Z" fill="black"></path><path d="M124.982 60.9864V54.8766H151.133C154.398 54.8766 156.221 53.0408 156.221 50.3082C156.221 47.3234 154.398 45.7819 151.133 45.7819H135.103C128.53 45.7819 124.445 41.5919 124.445 35.8185C124.445 30.045 128.234 25.9951 135.188 25.9951H160.236V32.1049H135.188C132.403 32.1049 130.778 33.7445 130.778 36.393C130.778 39.0415 132.46 40.625 135.146 40.625H151.133C158.186 40.625 161.974 43.9462 161.974 50.7286C161.974 56.6002 158.426 60.9864 151.133 60.9864H124.982Z" fill="black"></path><path d="M167.221 60.9864V54.8766H193.371C196.636 54.8766 198.46 53.0408 198.46 50.3082C198.46 47.3234 196.636 45.7819 193.371 45.7819H177.342C170.769 45.7819 166.684 41.5919 166.684 35.8185C166.684 30.045 170.472 25.9951 177.426 25.9951H202.474V32.1049H177.426C174.642 32.1049 173.016 33.7445 173.016 36.393C173.016 39.0415 174.698 40.625 177.384 40.625H193.371C200.424 40.625 204.213 43.9462 204.213 50.7286C204.213 56.6002 200.665 60.9864 193.371 60.9864H167.221Z" fill="black"></path><path d="M243.666 60.9856L238.436 52.1713H216.526L219.41 47.2105H235.51L227.735 34.1221L211.904 60.9856H204.949L225.007 27.4798C225.728 26.2746 226.633 25.5039 227.976 25.5039C229.318 25.5039 230.181 26.2746 230.902 27.4798L251.016 60.9856H243.68H243.666Z" fill="black"></path></g><defs><linearGradient id="paint0_linear_8994_609" x1="1.51172" y1="31.3617" x2="39.1398" y2="31.3617" gradientUnits="userSpaceOnUse"><stop stop-color="#3ABCE9"></stop><stop offset="1" stop-color="#C2E6EE"></stop></linearGradient><linearGradient id="paint1_linear_8994_609" x1="39.2266" y1="30.6891" x2="67.9777" y2="30.6891" gradientUnits="userSpaceOnUse"><stop stop-color="#3ABCE9"></stop><stop offset="1" stop-color="#C2E6EE"></stop></linearGradient><clipPath id="clip0_8994_609"><rect width="251" height="61" fill="white"></rect></clipPath></defs></svg>